#!OML:ASF H:\ManfredETheater\Project 1\Capture day 1\Session 1\subject.ASF
:FULLY-SPECIFIED
:DEGREES
111
root 1.39263 16.5232 -9.33865 -162.624 -0.748655 178.007
lowerback 17.1426 -1.00726 -0.861442
upperback -0.699576 -1.38091 2.57808
thorax -10.3374 -0.581805 3.6742
lowerneck -25.8005 -1.74313 -2.56055
upperneck 8.05721 -1.12575 -0.261885
head 6.54965 -0.530866 0.189815
rclavicle 1.19271e-015 1.98785e-014
rhumerus -57.7505 -3.98566 -85.0072
rradius 90.7785
rwrist -11.5569
rhand -24.7903 11.2955
rfingers 7.12502
rthumb 1.71412 -18.6773
lclavicle 1.19271e-015 1.98785e-014
lhumerus -37.2835 -7.5064 94.2303
lradius 95.7791
lwrist 11.1497
lhand -20.308 -8.14227
lfingers 7.12502
lthumb 6.0425 21.7516
rfemur -53.1695 -1.13862 26.5041
rtibia 58.1898
rfoot -18.7797 -5.61314
rtoes -9.49306
lfemur -13.934 -1.57703 -19.2578
ltibia 89.8674
lfoot 18.3436 -10.7057
ltoes 17.3783
112
root 1.4181 16.4901 -9.92755 -162.796 -1.10679 179.219
lowerback 17.3002 -0.954818 0.128949
upperback -0.690052 -1.0971 2.97828
thorax -10.447 -0.499605 3.48412
lowerneck -25.7144 -1.76944 -2.44597
upperneck 7.9456 -1.15102 -0.548906
head 6.49802 -0.562206 0.0748584
rclavicle -3.97569e-015 -7.15625e-015
rhumerus -55.0532 -3.18829 -85.9516
rradius 90.5429
rwrist -11.6336
rhand -24.7724 11.0394
rfingers 7.12502
rthumb 1.7314 -18.9333
lclavicle -3.97569e-015 -7.15625e-015
lhumerus -37.889 -6.52368 94.1556
lradius 91.8376
lwrist 10.8378
lhand -21.004 -8.33947
lfingers 7.12502
lthumb 5.37045 21.5725
rfemur -50.7767 -0.245246 27.7712
rtibia 58.8825
rfoot -20.3949 -7.56167
rtoes -9.31669
lfemur -17.2265 -0.769008 -16.9644
ltibia 93.8528
lfoot 16.0107 -10.8429
ltoes 16.7652
113
root 1.44453 16.4598 -10.5164 -162.772 -1.54005 180.185
lowerback 17.2373 -0.939693 0.913191
upperback -0.744033 -0.906066 3.32338
thorax -10.4896 -0.450988 3.36873
lowerneck -25.6789 -1.76959 -2.30408
upperneck 7.89339 -1.15092 -0.832831
head 6.47327 -0.581334 -0.0405684
rclavicle -1.07344e-014 7.95139e-016
rhumerus -52.4287 -2.07686 -86.9201
rradius 90.7005
rwrist -11.6821
rhand -24.7035 10.8344
rfingers 7.12502
rthumb 1.79796 -19.1378
lclavicle -1.07344e-014 7.95139e-016
lhumerus -38.7261 -5.69716 94.0294
lradius 88.3429
lwrist 10.6698
lhand -21.6745 -8.52295
lfingers 7.12502
lthumb 4.72307 21.4044
rfemur -48.3919 0.461493 28.8803
rtibia 59.1735
rfoot -22.2776 -9.43027
rtoes -10.4489
lfemur -20.9341 -0.0903677 -15.0098
ltibia 97.4576
lfoot 13.7636 -10.8339
ltoes 16.2415
114
root 1.47097 16.4337 -11.1066 -162.606 -2.02741 180.875
lowerback 16.9991 -0.957247 1.46309
upperback -0.844309 -0.810876 3.59428
thorax -10.4746 -0.434512 3.32539
lowerneck -25.6916 -1.7475 -2.14764
upperneck 7.90596 -1.13279 -1.07731
head 6.47716 -0.589471 -0.143636
rclavicle 3.18055e-015 -3.97569e-015
rhumerus -49.9363 -0.691601 -87.893
rradius 91.3606
rwrist -11.7839
rhand -24.5601 10.6883
rfingers 7.12502
rthumb 1.93645 -19.2827
lclavicle 3.18055e-015 -3.97569e-015
lhumerus -39.8768 -5.09016 93.8693
lradius 85.5064
lwrist 10.5811
lhand -22.2291 -8.71547
lfingers 7.12502
lthumb 4.18756 21.2231
rfemur -45.9857 0.952421 29.773
rtibia 59.1056
rfoot -24.2507 -11.1971
rtoes -12.2691
lfemur -24.9573 0.454582 -13.4962
ltibia 100.611
lfoot 11.6238 -10.6505
ltoes 15.705
115
root 1.49687 16.4133 -11.6996 -162.334 -2.51953 181.292
lowerback 16.6241 -0.991108 1.77205
upperback -0.980553 -0.790761 3.77933
thorax -10.4148 -0.439061 3.33995
lowerneck -25.7482 -1.71748 -2.00076
upperneck 7.98503 -1.11457 -1.24251
head 6.51005 -0.592761 -0.219795
rclavicle 2.34566e-014 -5.80451e-014
rhumerus -47.6307 0.892586 -88.8443
rradius 92.5894
rwrist -12.0512
rhand -24.3027 10.6446
rfingers 7.12502
rthumb 2.18504 -19.3239
lclavicle 2.34566e-014 -5.80451e-014
lhumerus -41.3938 -4.75996 93.7063
lradius 83.484
lwrist 10.4985
lhand -22.6054 -8.93238
lfingers 7.12502
lthumb 3.82415 21.0131
rfemur -43.5354 1.23596 30.4262
rtibia 58.6949
rfoot -26.1039 -12.756
rtoes -14.0225
lfemur -29.1921 0.883636 -12.4718
ltibia 103.252
lfoot 9.5945 -10.2729
ltoes 15.0818
116
root 1.52116 16.4015 -12.2982 -162.024 -3.02705 181.466
lowerback 16.1774 -1.04628 1.90164
upperback -1.13481 -0.838423 3.87517
thorax -10.3288 -0.464929 3.37261
lowerneck -25.8263 -1.69786 -1.88077
upperneck 8.11258 -1.11917 -1.30688
head 6.56284 -0.600473 -0.261882
rclavicle -3.97569e-016 -1.59028e-015
rhumerus -45.557 2.57858 -89.7499
rradius 94.4114
rwrist -12.5141
rhand -23.9314 10.6924
rfingers 7.12502
rthumb 2.54358 -19.2722
lclavicle -3.97569e-016 -1.59028e-015
lhumerus -43.2915 -4.74029 93.5784
lradius 82.3568
lwrist 10.4119
lhand -22.746 -9.19834
lfingers 7.12502
lthumb 3.68841 20.7495
rfemur -40.9534 1.28633 30.8593
rtibia 57.9298
rfoot -27.7853 -14.0282
rtoes -15.5414
lfemur -33.4806 1.14846 -11.9197
ltibia 105.318
lfoot 7.64072 -9.707
ltoes 14.2467
117
root 1.54449 16.3988 -12.904 -161.702 -3.49504 181.513
lowerback 15.6776 -1.08929 1.93152
upperback -1.30068 -0.892599 3.90203
thorax -10.2234 -0.488185 3.38514
lowerneck -25.8945 -1.71457 -1.80823
upperneck 8.26906 -1.17749 -1.25769
head 6.62455 -0.62643 -0.266005
rclavicle 5.96354e-015 4.6118e-014
rhumerus -43.7508 4.2581 -90.5873
rradius 96.7929
rwrist -13.1518
rhand -23.4615 10.8211
rfingers 7.12502
rthumb 2.99744 -19.1376
lclavicle 5.96354e-015 4.6118e-014
lhumerus -45.5502 -5.0396 93.5275
lradius 82.1149
lwrist 10.3465
lhand -22.6146 -9.53139
lfingers 7.12502
lthumb 3.81531 20.4142
rfemur -38.1947 1.19157 31.1691
rtibia 56.7899
rfoot -29.2563 -14.9856
rtoes -16.8847
lfemur -37.7057 1.32585 -11.6994
ltibia 106.788
lfoot 5.70759 -9.02477
ltoes 13.1369
118
root 1.56669 16.4051 -13.5185 -161.394 -3.94078 181.517
lowerback 15.1413 -1.11123 1.95706
upperback -1.47538 -0.923133 3.87972
thorax -10.1073 -0.500584 3.33884
lowerneck -25.9466 -1.79293 -1.80728
upperneck 8.45884 -1.31541 -1.09606
head 6.69617 -0.683777 -0.232005
rclavicle 3.97569e-015 5.08889e-014
rhumerus -42.233 5.84789 -91.3312
rradius 99.656
rwrist -13.8937
rhand -22.9285 11.0186
rfingers 7.12502
rthumb 3.51216 -18.9322
lclavicle 3.97569e-015 5.08889e-014
lhumerus -48.1062 -5.63345 93.5884
lradius 82.6704
lwrist 10.3656
lhand -22.2654 -9.84954
lfingers 7.12502
lthumb 4.15251 20.0897
rfemur -35.2347 0.993678 31.433
rtibia 55.2757
rfoot -30.4346 -15.6407
rtoes -18.1327
lfemur -41.7787 1.41119 -11.6855
ltibia 107.658
lfoot 3.7909 -8.28775
ltoes 11.7992
119
root 1.58728 16.4193 -14.1419 -161.128 -4.34143 181.519
lowerback 14.5993 -1.08871 2.01394
upperback -1.65453 -0.892262 3.81357
thorax -9.99545 -0.486499 3.21256
lowerneck -25.9598 -1.94999 -1.88348
upperneck 8.66831 -1.55101 -0.843257
head 6.77041 -0.7828 -0.168162
rclavicle -1.55052e-014 1.59028e-014
rhumerus -40.9951 7.29234 -91.9572
rradius 102.883
rwrist -14.6444
rhand -22.3718 11.2491
rfingers 7.12502
rthumb 4.0497 -18.6921
lclavicle -1.55052e-014 1.59028e-014
lhumerus -50.8831 -6.47069 93.7752
lradius 83.8773
lwrist 10.5526
lhand -21.6908 -10.1656
lfingers 7.12502
lthumb 4.70736 19.7621
rfemur -32.0602 0.763615 31.6713
rtibia 53.4157
rfoot -31.2419 -16.0012
rtoes -19.4743
lfemur -45.6059 1.42124 -11.8136
ltibia 107.94
lfoot 1.88613 -7.5419
ltoes 10.2186
